<svg width="37" height="26" viewBox="0 0 37 26" fill="none" xmlns="http://www.w3.org/2000/svg">
<path d="M18.4385 19.4053V22.9209L18.9864 22.6843C23.04 20.9346 27.4083 20.032 31.8232 20.032V16.5164C27.4083 16.5164 23.0398 17.419 18.9864 19.1687L18.4385 19.4053Z" fill="#EBE7F2"/>
<path d="M5.05367 16.5166V20.0322C9.46859 20.0322 13.8371 20.9349 17.8905 22.6846L18.4385 22.921V19.4054L17.8906 19.1688C13.8371 17.4192 9.46859 16.5166 5.05367 16.5166Z" fill="#EBE7F2"/>
<path d="M15.9709 7.69148C15.9046 7.69148 15.8373 7.67654 15.774 7.64455C14.4522 6.9808 13.066 6.46752 11.6536 6.11947C10.2431 5.77195 8.79588 5.58633 7.35236 5.56787C7.10979 5.56471 6.91555 5.36555 6.91854 5.12279C6.9217 4.88004 7.12139 4.69406 7.36362 4.68896C8.8741 4.7083 10.3881 4.90236 11.8638 5.26605C13.3398 5.62975 14.7883 6.1657 16.1685 6.85898C16.3852 6.96797 16.4728 7.23199 16.364 7.44891C16.2868 7.60289 16.1318 7.69148 15.9709 7.69148Z" fill="#B9375E"/>
<path d="M20.9061 7.69138C20.7453 7.69138 20.5903 7.60278 20.5131 7.44915C20.4043 7.23224 20.4918 6.96821 20.7086 6.85923C22.089 6.16595 23.5372 5.62999 25.0131 5.2663C26.489 4.90261 28.003 4.70854 29.5135 4.68921C29.752 4.69396 29.9555 4.88028 29.9585 5.12304C29.9617 5.36562 29.7673 5.56495 29.5247 5.56812C28.0812 5.58657 26.6342 5.7722 25.2233 6.11972C23.8111 6.46776 22.4247 6.98087 21.103 7.6448C21.0397 7.67644 20.9724 7.69138 20.9061 7.69138Z" fill="#B9375E"/>
<path d="M15.9709 10.7904C15.9046 10.7904 15.8373 10.7755 15.774 10.7435C14.4522 10.0797 13.066 9.56664 11.6536 9.21859C10.2429 8.8709 8.7957 8.68545 7.35236 8.66699C7.10979 8.66383 6.91555 8.46467 6.91854 8.22191C6.9217 7.97916 7.12139 7.79037 7.36362 7.78809C8.87375 7.80742 10.3879 8.00166 11.8638 8.36535C13.3396 8.72904 14.7881 9.265 16.1685 9.95828C16.3852 10.0673 16.4728 10.3313 16.364 10.5482C16.2868 10.7017 16.1318 10.7904 15.9709 10.7904Z" fill="#B9375E"/>
<path d="M20.9061 10.7905C20.7453 10.7905 20.5903 10.7019 20.5131 10.5483C20.4043 10.3314 20.4918 10.0674 20.7086 9.95837C22.0892 9.26508 23.5374 8.72913 25.0131 8.36544C26.489 8.00175 28.0033 7.80751 29.5135 7.78817C29.752 7.78342 29.9555 7.97925 29.9585 8.222C29.9617 8.46458 29.7673 8.66391 29.5247 8.66708C28.0814 8.68553 26.6343 8.87116 25.2233 9.21868C23.8111 9.56673 22.4247 10.0798 21.103 10.7436C21.0397 10.7754 20.9724 10.7905 20.9061 10.7905Z" fill="#B9375E"/>
<path d="M15.9709 13.8896C15.9046 13.8896 15.8373 13.8746 15.774 13.8426C14.4522 13.1787 13.066 12.6656 11.6537 12.3177C10.2433 11.97 8.79606 11.7846 7.35236 11.7661C7.10979 11.763 6.91555 11.5638 6.91854 11.321C6.9217 11.0783 7.12139 10.8867 7.36362 10.8872C8.87428 10.9065 10.3883 11.1008 11.864 11.4645C13.3398 11.828 14.7881 12.3639 16.1685 13.0574C16.3852 13.1664 16.4728 13.4304 16.364 13.6473C16.2868 13.8008 16.1318 13.8896 15.9709 13.8896Z" fill="#B9375E"/>
<path d="M20.9061 13.8894C20.7453 13.8894 20.5903 13.8008 20.5131 13.6471C20.4043 13.4302 20.4918 13.1662 20.7086 13.0572C22.0892 12.3637 23.5374 11.8278 25.0133 11.4643C26.4888 11.1006 28.0028 10.9063 29.5135 10.887C29.752 10.8835 29.9555 11.0781 29.9585 11.3208C29.9617 11.5634 29.7673 11.7628 29.5247 11.7659C28.081 11.7844 26.634 11.97 25.2235 12.3175C23.8111 12.6654 22.4247 13.1785 21.103 13.8424C21.0397 13.8742 20.9724 13.8894 20.9061 13.8894Z" fill="#B9375E"/>
<path d="M15.9709 16.9884C15.9046 16.9884 15.8373 16.9735 15.774 16.9415C14.4522 16.2777 13.066 15.7646 11.6536 15.4166C10.2431 15.0691 8.79588 14.8834 7.35236 14.865C7.10979 14.8618 6.91555 14.6627 6.91854 14.4199C6.9217 14.1791 7.11787 13.9861 7.35781 13.9861C7.35992 13.9861 7.36151 13.9861 7.36362 13.9861C8.8741 14.0054 10.3881 14.1995 11.8638 14.5632C13.3396 14.9269 14.7881 15.4628 16.1685 16.1561C16.3852 16.2651 16.4728 16.5291 16.364 16.746C16.2868 16.8997 16.1318 16.9884 15.9709 16.9884Z" fill="#B9375E"/>
<path d="M20.9061 16.9883C20.7453 16.9883 20.5903 16.8997 20.5131 16.746C20.4043 16.5291 20.4918 16.2651 20.7086 16.1561C22.0892 15.4628 23.5374 14.9269 25.0131 14.5632C26.4888 14.1995 28.003 14.0054 29.5135 13.9861C29.752 13.984 29.9555 14.1772 29.9585 14.4199C29.9617 14.6625 29.7673 14.8618 29.5247 14.865C28.0812 14.8835 26.6342 15.0691 25.2233 15.4166C23.8111 15.7647 22.4247 16.2778 21.103 16.9415C21.0397 16.9733 20.9724 16.9883 20.9061 16.9883Z" fill="#B9375E"/>
<path d="M35.9395 2.21875H33.0075C32.7647 2.21875 32.568 2.41545 32.568 2.6582C32.568 2.90096 32.7647 3.09766 33.0075 3.09766H35.5V24.9624H1.37703V3.09766H3.45599C3.69875 3.09766 3.89545 2.90096 3.89545 2.6582C3.89545 2.41545 3.69875 2.21875 3.45599 2.21875H0.937576C0.694822 2.21875 0.498123 2.41545 0.498123 2.6582V25.4018C0.498123 25.6446 0.694822 25.8413 0.937576 25.8413H35.9393C36.1821 25.8413 36.3788 25.6446 36.3788 25.4018V2.6582C36.3789 2.41545 36.1821 2.21875 35.9395 2.21875Z" fill="#590D22"/>
<path d="M5.05367 20.4716C8.89063 20.4716 12.6356 21.1471 16.2089 22.4815H3.65938V4.66306C3.65938 4.4203 3.46268 4.2236 3.21992 4.2236C2.97717 4.2236 2.78047 4.4203 2.78047 4.66306V22.9209C2.78047 23.1637 2.97717 23.3604 3.21992 23.3604H33.6572C33.8999 23.3604 34.0966 23.1637 34.0966 22.9209V4.66306C34.0966 4.4203 33.8999 4.2236 33.6572 4.2236C33.4144 4.2236 33.2177 4.4203 33.2177 4.66306V22.4815H20.668C24.2413 21.1471 27.9863 20.4716 31.8232 20.4716C32.066 20.4716 32.2627 20.2749 32.2627 20.0321V1.37964C32.2627 1.26222 32.2156 1.14972 32.1322 1.0671C32.0486 0.984482 31.9283 0.942295 31.8183 0.940186L31.4362 0.94458C26.9434 0.99538 22.5836 1.94601 18.4774 3.77026L18.4385 3.78749L18.3995 3.77009C16.3671 2.86728 14.2351 2.16925 12.0617 1.69552C9.8903 1.22231 7.66297 0.969716 5.44092 0.94458L5.05877 0.940186C4.94926 0.941416 4.82832 0.984482 4.74483 1.0671C4.66133 1.14972 4.6144 1.26222 4.6144 1.37964V20.0321C4.61422 20.2749 4.8111 20.4716 5.05367 20.4716ZM31.3839 19.5957C27.0617 19.6523 22.8566 20.5456 18.878 22.2528V4.55407C22.8424 2.79978 27.049 1.88149 31.3839 1.82419V19.5957ZM5.49313 1.82419C7.63502 1.85267 9.78149 2.09823 11.8745 2.55438C13.9739 3.01194 16.0342 3.68466 17.9991 4.55407V22.2528C14.0205 20.5456 9.81541 19.6525 5.49313 19.5957V1.82419Z" fill="#590D22"/>
</svg>
